<svg xmlns="http://www.w3.org/2000/svg" width="274" height="110" viewBox="0 0 137 55">
  <metadata><?xpacket begin="﻿" id="W5M0MpCehiHzreSzNTczkc9d"?>
<x:xmpmeta xmlns:x="adobe:ns:meta/" x:xmptk="Adobe XMP Core 5.6-c138 79.159824, 2016/09/14-01:09:01        ">
   <rdf:RDF xmlns:rdf="http://www.w3.org/1999/02/22-rdf-syntax-ns#">
      <rdf:Description rdf:about=""/>
   </rdf:RDF>
</x:xmpmeta>
                                                                                                    
                                                                                                    
                                                                                                    
                                                                                                    
                                                                                                    
                                                                                                    
                                                                                                    
                                                                                                    
                                                                                                    
                                                                                                    
                                                                                                    
                                                                                                    
                                                                                                    
                                                                                                    
                                                                                                    
                                                                                                    
                                                                                                    
                                                                                                    
                                                                                                    
                                                                                                    
                           
<?xpacket end="w"?></metadata>
<defs>
    <style>
      .cls-1 {
        fill: #f16723;
      }

      .cls-1, .cls-2, .cls-3 {
        fill-rule: evenodd;
      }

      .cls-2 {
        fill: #231f20;
      }

      .cls-3 {
        fill: #fff;
      }
    </style>
  </defs>
  <path class="cls-1" d="M15.557,1.588l24.3,24.468L16.13,50.958S4.773,41.7,4.8,26.634,12.473,4.692,15.557,1.588Z"/>
  <path id="Insurance" class="cls-2" d="M46.223,17.808H42.829V31.639h3.394V17.808Zm12,7.843a3.6,3.6,0,0,0-1.021-2.8,3.317,3.317,0,0,0-2.329-.821,3.571,3.571,0,0,0-1.861.446,4.1,4.1,0,0,0-1,.942V22.236H48.866v9.4h3.145V26.6a2.059,2.059,0,0,1,.437-1.452,1.58,1.58,0,0,1,1.2-.514,1.3,1.3,0,0,1,1.169.6,3.379,3.379,0,0,1,.266,1.649v4.756h3.146V25.65Zm8.821,0.871a3.559,3.559,0,0,0-1.812-.871,5.715,5.715,0,0,1-1.011-.274,0.579,0.579,0,0,1-.382-0.511q0-.695.943-0.695a3.463,3.463,0,0,1,1.677.486l1.061-2.148a7.138,7.138,0,0,0-2.878-.608,3.949,3.949,0,0,0-3.155,1.183,3.2,3.2,0,0,0-.794,2.155,2.954,2.954,0,0,0,.181,1.093,2.21,2.21,0,0,0,1.288,1.234,8.95,8.95,0,0,0,1.135.314,4.268,4.268,0,0,1,.992.314,0.637,0.637,0,0,1,.343.578q0,0.72-.982.719a4.468,4.468,0,0,1-2.5-.932l-1.138,2.351a6.57,6.57,0,0,0,3.547,1.084,4.484,4.484,0,0,0,3.2-1.074,3.215,3.215,0,0,0,1.013-2.452,2.663,2.663,0,0,0-.734-1.945h0ZM79.03,22.236H75.884v5.33a1.816,1.816,0,0,1-.4,1.3,1.793,1.793,0,0,1-2.366,0,1.816,1.816,0,0,1-.4-1.3v-5.33H69.574V28.2a3.612,3.612,0,0,0,.765,2.4,4.906,4.906,0,0,0,3.968,1.439,7.008,7.008,0,0,0,2.381-.355A3.377,3.377,0,0,0,79.03,28.2V22.236Zm8.982-.1Q87.65,22.1,87.4,22.1a3.363,3.363,0,0,0-1.831.486A3.531,3.531,0,0,0,84.5,23.776v-1.54H81.358v9.4H84.5V27.616a4.039,4.039,0,0,1,.172-1.307,1.9,1.9,0,0,1,2-1.348,2.918,2.918,0,0,1,1.335.334V22.134Zm11.592,0.1H96.459v0.922a3.571,3.571,0,0,0-.983-0.8,3.916,3.916,0,0,0-1.776-.415,4.135,4.135,0,0,0-2.874,1.144,4.953,4.953,0,0,0-1.575,3.846,4.965,4.965,0,0,0,1.537,3.806,4.188,4.188,0,0,0,2.941,1.2,3.5,3.5,0,0,0,1.824-.476,3.294,3.294,0,0,0,.907-0.871v1.044H99.6v-9.4ZM95.969,28.45a1.9,1.9,0,0,1-1.432.615,1.863,1.863,0,0,1-1.532-.746,2.209,2.209,0,0,1,0-2.763,1.949,1.949,0,0,1,2.959-.126A2.234,2.234,0,0,1,95.969,28.45Zm15.333-2.8a3.6,3.6,0,0,0-1.022-2.8,3.315,3.315,0,0,0-2.329-.821,3.574,3.574,0,0,0-1.862.446,4.112,4.112,0,0,0-1,.942V22.236h-3.145v9.4h3.145V26.6a2.062,2.062,0,0,1,.437-1.452,1.58,1.58,0,0,1,1.2-.514,1.3,1.3,0,0,1,1.169.6,3.384,3.384,0,0,1,.266,1.649v4.756H111.3V25.65Zm9.029,2.959a2.779,2.779,0,0,1-1.621.608,2.046,2.046,0,0,1-1.545-.638,2.486,2.486,0,0,1,0-3.263,2.047,2.047,0,0,1,1.545-.638,2.725,2.725,0,0,1,1.621.618V22.469a4.173,4.173,0,0,0-2.046-.527,4.716,4.716,0,0,0-3.853,1.743,5.214,5.214,0,0,0,0,6.525,4.715,4.715,0,0,0,3.853,1.743,4.31,4.31,0,0,0,2.046-.517V28.609Zm11.4-1.48a5.933,5.933,0,0,0-.7-2.923,4.36,4.36,0,0,0-4.14-2.233,4.694,4.694,0,0,0-3.643,1.408,5.2,5.2,0,0,0-1.291,3.658,5.049,5.049,0,0,0,1.033,3.212,4.9,4.9,0,0,0,4.111,1.763,4.676,4.676,0,0,0,3.432-1.263,4.394,4.394,0,0,0,1.071-1.97h-3.04a1.652,1.652,0,0,1-1.5.892q-1.922,0-1.921-2.118h6.587V27.129Zm-6.5-1.469a1.937,1.937,0,0,1,.5-1.085,1.824,1.824,0,0,1,3.071,1.085h-3.566Z"/>
  <path id="Club." class="cls-2" d="M50.439,46.28a3.9,3.9,0,0,1-.977.938,3.562,3.562,0,0,1-1.953.581,3.4,3.4,0,0,1-2.3-.843,4.071,4.071,0,0,1,0-5.842,3.4,3.4,0,0,1,2.3-.843,3.562,3.562,0,0,1,1.953.581,3.933,3.933,0,0,1,.977.938V37.485a8.1,8.1,0,0,0-3.05-.7,6.64,6.64,0,0,0-4.446,1.672,7.012,7.012,0,0,0-2.486,5.583,7,7,0,0,0,2.486,5.573,6.6,6.6,0,0,0,4.417,1.672,8,8,0,0,0,3.079-.7V46.28Zm5.2-10.588H52.49V50.91h3.145V35.691Zm11.783,5.816H64.273v5.33a1.816,1.816,0,0,1-.4,1.3,1.793,1.793,0,0,1-2.366,0,1.815,1.815,0,0,1-.4-1.3v-5.33H57.963v5.968a3.612,3.612,0,0,0,.765,2.4A4.906,4.906,0,0,0,62.7,51.316a7,7,0,0,0,2.381-.355,3.377,3.377,0,0,0,2.342-3.486V41.507Zm11.107,0.85a4.135,4.135,0,0,0-2.874-1.144,3.841,3.841,0,0,0-1.776.425,3.57,3.57,0,0,0-.983.8V35.691H69.746V50.91h3.146V49.867a3,3,0,0,0,.907.871,3.5,3.5,0,0,0,1.824.476,4.188,4.188,0,0,0,2.941-1.2,5.482,5.482,0,0,0-.038-7.652h0Zm-2.18,5.248a1.858,1.858,0,0,1-1.532.752,1.892,1.892,0,0,1-1.427-.625,2.249,2.249,0,0,1,0-3.037,1.94,1.94,0,0,1,2.959.127,2.173,2.173,0,0,1,.485,1.392,2.2,2.2,0,0,1-.485,1.391h0Zm7.764,1.386a1.088,1.088,0,0,0-.816-0.351,1.125,1.125,0,0,0-.84.351,1.187,1.187,0,0,0-.341.86,1.205,1.205,0,0,0,.341.865,1.117,1.117,0,0,0,.84.356,1.081,1.081,0,0,0,.816-0.356,1.215,1.215,0,0,0,.336-0.865A1.2,1.2,0,0,0,84.11,48.992Z"/>
  <path id="Com" class="cls-2" d="M101.774,46.28a3.893,3.893,0,0,1-.976.938,3.564,3.564,0,0,1-1.954.581,3.4,3.4,0,0,1-2.3-.843,4.072,4.072,0,0,1,0-5.842,3.4,3.4,0,0,1,2.3-.843,3.564,3.564,0,0,1,1.954.581,3.926,3.926,0,0,1,.976.938V37.485a8.1,8.1,0,0,0-3.049-.7,6.641,6.641,0,0,0-4.446,1.672,7.013,7.013,0,0,0-2.486,5.583,7,7,0,0,0,2.486,5.573A6.6,6.6,0,0,0,98.7,51.285a8,8,0,0,0,3.078-.7V46.28Zm11.153-3.4a5.074,5.074,0,0,0-4.016-1.712,5.274,5.274,0,0,0-4.216,1.712,4.836,4.836,0,0,0-1.224,3.252,5.057,5.057,0,0,0,1.214,3.435,5.85,5.85,0,0,0,8.251,0,5.194,5.194,0,0,0-.009-6.687h0Zm-2.646,4.9a2,2,0,0,1-3.045-.138,2.284,2.284,0,0,1,0-2.84,1.919,1.919,0,0,1,1.58-.774,1.94,1.94,0,0,1,1.46.636A2.314,2.314,0,0,1,110.281,47.772ZM131.173,44.8a5.722,5.722,0,0,0-.153-1.439,2.574,2.574,0,0,0-1.092-1.51,3.165,3.165,0,0,0-1.771-.507,3.337,3.337,0,0,0-2.164.77,3.536,3.536,0,0,0-.814.993,4,4,0,0,0-.843-1.033,3.316,3.316,0,0,0-2.183-.719,3.674,3.674,0,0,0-1.858.476,4.882,4.882,0,0,0-1.015.831V41.507h-3.146v9.4h3.146V46.266a6.587,6.587,0,0,1,.067-1.067,1.519,1.519,0,0,1,.22-0.612,1.3,1.3,0,0,1,1.147-.627,1.249,1.249,0,0,1,1.176.728,4.093,4.093,0,0,1,.191,1.578V50.91h3.145V46.266a3.279,3.279,0,0,1,.3-1.6,1.325,1.325,0,0,1,1.2-.718,1.139,1.139,0,0,1,1.061.658,3.922,3.922,0,0,1,.239,1.659V50.91h3.145V44.8Z"/>
  <path id="Shape_3_copy" data-name="Shape 3 copy" class="cls-1" d="M89.838,35.3l8.449,8.55-8.249,8.7a11.8,11.8,0,0,1-3.938-8.5A11.256,11.256,0,0,1,89.838,35.3Z"/>
  <path id="My" class="cls-3" d="M20.65,18.006H17.436l-2.651,7.166L12.28,18.006H9.093L6.987,31.442H10.2L11.253,23.7l2.857,7.737h1.279L18.381,23.7,19.3,31.442H22.52Zm10.922,4.3-2.188,4.685-2.251-4.685H23.674l4.067,7.884-2.86,5.817h3.341l6.763-13.7H31.572Z"/>
</svg>
